<svg xmlns="http://www.w3.org/2000/svg" viewBox="0 0 150 150"><path d="M79.487.582c-.386.182-.759.537-1.152 1.098-.32.456-.717.916-.882 1.023-.908.587-5.987.942-7.939.554-2.094-.416-1.966-.42-2.217.066-.168.325-.241.97-.288 2.549-.115 3.858-.115 3.857-1.095 5.63-1.71 3.092-3.595 4.338-6.677 4.415l-1.944.048-.017 1.855c-.031 3.526-.508 4.16-3.248 4.317-2.013.116-1.944.107-1.944.254 0 .068-.053.091-.118.051-.306-.189-.477.626-.401 1.905.118 1.988-.541 3.188-2.465 4.482a470.331 470.331 0 0 0-2.334 1.583c-1.325.905-2.696 1.669-2.993 1.67-.103 0-.353.117-.556.259-.203.143-.824.494-1.38.78-1.406.724-1.488.905-1.488 3.277 0 1.996.291 2.899 1.013 3.137.13.043.632.263 1.116.489 2.568 1.199 8.889.944 11.588-.468a19.746 19.746 0 0 1 1.299-.604c.39-.163.859-.436 1.042-.609.182-.172.519-.411.748-.53a7.454 7.454 0 0 0 .834-.528 7.55 7.55 0 0 1 .972-.586 101.359 101.359 0 0 0 .972-.489c1.054-.54 4.255-.399 5.789.255.483.206 1.034.383 1.225.393.191.011.691.216 1.111.457 2.204 1.264 5.525 1.161 8.669-.268l1.239-.563 1.789.03c2.17.036 3.458.381 4.332 1.159.237.211.577.512.757.669.862.755.123 3.474-1.341 4.926l-.93.923-1.181-.075c-.66-.042-1.548-.204-2.014-.368a75.689 75.689 0 0 0-1.641-.553c-.444-.143-.958-.358-1.141-.478-.962-.63-1.504-.173-1.543 1.304-.04 1.489-.637 2.896-1.853 4.361-1.368 1.648-1.736 1.797-4.41 1.776-2.929-.022-2.806-.174-2.516 3.105.18 2.037.096 2.357-.957 3.655-.876 1.08-1.365 1.305-3.132 1.438-2.18.164-2.525.612-2.213 2.877.314 2.281-.071 3.876-1.149 4.764-.939.773-3.363 1.495-5.035 1.5-.445.002-.729.063-.729.158 0 .102-.084.09-.243-.035-.218-.171-.224-.167-.06.044.143.183.147.301.021.536-.156.291-.128.877.081 1.71.171.682-.338 2.574-.763 2.836a5.827 5.827 0 0 0-.704.534c-.494.447-1.297.776-2.499 1.02-1.337.273-1.412.405-1.241 2.213.184 1.946-.159 2.891-1.568 4.319-.898.909-2.239 1.652-3.184 1.764-.939.111-1.576 1.114-.952 1.499.264.163.165 3.016-.137 3.981-.152.485-.277 1.053-.277 1.263-.001.21-.059.382-.129.382s-.234.279-.364.62c-.267.699-1.752 2.192-2.778 2.793-.341.2-.62.423-.62.497 0 .074-.049.104-.108.067-.28-.173.061 1.58.371 1.91.296.315.317.43.246 1.361-.195 2.526-.57 3.511-1.794 4.713-.462.454-.5.544-.387.938.188.655.729 1.696 1.081 2.08.408.444.46 2.973.083 4.033-.349.983.029 1.763 1.113 2.293.588.288.804.475.868.755.047.204.246.716.444 1.135.787 1.677.5 3.554-.667 4.374-.889.624-.904 1.009-.068 1.845.356.356.735.818.843 1.026.108.209.415.546.683.751 1.391 1.061 1.965 4.973.977 6.659-.221.377-.445.92-.497 1.206-.106.578-.18.523 1.116.812 2.078.461 3.75 2.334 3.75 4.199 0 .184.124.696.276 1.138.188.546.249.975.191 1.339-.059.371-.019.636.131.865.473.721.617.786 1.763.786 1.739 0 3.298.565 3.415 1.236.048.275.21.968.362 1.541l.386 1.458c.185.699.301.904.607 1.067.301.161 2.73.471 4.814.614 1.737.119 4.305 1.11 4.305 1.661 0 .096.272.508.604.916.735.903 1.063 1.515 1.063 1.985 0 .979.864 1.128 2.267.39 1.743-.916 4.294-.703 6.353.529 1.464.876 2.007.81 3.197-.392 2.439-2.462 4.419-3.105 6.724-2.183 1.603.641 2.639.369 3.158-.829.097-.224.317-.662.488-.972.172-.31.378-.728.459-.929.105-.259.457-.517 1.216-.888.588-.288 1.236-.64 1.44-.783.416-.29 1.32-.494 2.957-.666 1.612-.17 2.158-1.138 2.158-3.831v-1.013l.688-.505c.378-.278.855-.705 1.059-.95.204-.244.783-.694 1.286-1 1.198-.726 1.376-1.235 1.175-3.356-.137-1.444.03-3.136.387-3.935.712-1.594 1.039-3.256.741-3.773-.244-.424-2.63-2.555-3.059-2.732-.737-.304-1.016-3.279-.417-4.439.701-1.355-.151-2.774-1.69-2.816-1.564-.042-3.643-1.783-3.643-3.05 0-.276-.119-.747-.265-1.047-.177-.363-.216-.576-.117-.636.153-.095-.702-.192-2.954-.334-1.836-.115-2.736-.587-3.571-1.868-.947-1.454-1.004-1.521-1.365-1.612-.531-.134-1.008.139-2.214 1.267-1.779 1.663-3.057 1.971-5.24 1.262-1.133-.367-1.34-.386-1.35-.119-.123 3.222-.73 4.189-2.778 4.421-1.486.168-1.895.852-1.244 2.078 1.036 1.95.836 3.762-.585 5.304-.86.933-.575 1.68.998 2.61.571.338 1.312 1.423 1.578 2.313.107.357.26.771.34.921.08.15.181.889.225 1.643.121 2.104.318 2.461 1.932 3.5 1.594 1.026 3.655.347 4.473-1.473.466-1.038.399-1.692-.407-3.989-.53-1.509.105-4.175 1.145-4.807.55-.335 2.8-.374 3.51-.062.251.111.682.237.957.28 1.347.214 2.292 1.306 2.514 2.902.221 1.592.243 1.505-.476 1.897-.36.196-.798.488-.972.647-.175.16-.449.33-.608.378-.879.265-1.057 1.05-.62 2.72.379 1.449.549 3.282.357 3.843-.774 2.25-3.471 2.762-6.426 1.221-.655-.342-1.268-.258-1.682.231-1.739 2.048-2.29 2.347-4.339 2.347-1.213 0-1.749-.363-2.102-1.421-.105-.315-.312-.64-.461-.722-.148-.082-.502-.351-.787-.597-.285-.246-.66-.478-.833-.514-.841-.175-2.197-.358-2.654-.358h-.509v-1.254c0-1.917-.671-2.841-2.821-3.884-.882-.428-.954-.671-.86-2.9.055-1.316.127-1.712.425-2.361.197-.429.41-1.03.471-1.336a5.56 5.56 0 0 1 .204-.772c.061-.145-.185-.535-.746-1.181-.798-.919-.942-1.155-1.549-2.53-.467-1.059-.137-4.139.482-4.498.087-.051.596-.418 1.131-.817s1.293-.868 1.684-1.044c1.206-.541 1.607-1.429 1.095-2.421-.28-.541-.322-3.511-.058-4.079.204-.437 1.614-1.423 2.191-1.531.201-.038.835-.108 1.408-.156 1.398-.117 1.806-.461 1.806-1.524 0-.782.39-2.127.948-3.267.575-1.174.254-1.013 3.043-1.531 2.113-.393 2.5-.66 2.605-1.802.482-5.239.643-5.521 3.396-5.931.723-.108 1.396-.263 1.495-.345.129-.106.18-.105.18.007 0 .086.062.156.139.156s.139-.129.139-.287c0-.158.075-.423.167-.59.107-.195.174-1.095.188-2.526.015-1.647.24-5.9.332-6.281.053-.221.712-.42 1.115-.337l.482.1.018 2.356c.019 2.505.077 2.845.872 5.097.744 2.106 2.92 5.121 3.99 5.527.497.189 1.893.159 3.046-.065 1.435-.279 3.58-.904 3.819-1.113.115-.1.365-.229.556-.286 1.565-.47 4.757-3.218 5.499-4.734 1.009-2.062.736-2.407-2.79-3.531-1.519-.484-2.253-.773-2.657-1.046a22.051 22.051 0 0 0-1.126-.687c-.7-.402-2.576-2.114-2.805-2.561-.161-.314-.42-1.875-.485-2.926a46.66 46.66 0 0 0-.068-.997c-.05-.4-.504-.531-1.862-.537-2.738-.012-3.53-.458-3.369-1.898.09-.807.309-1.381.564-1.479.67-.257 5.297 1.136 6.067 1.827.254.228.865.718 1.356 1.09.912.689 1.475 1.355 2.245 2.657.494.835.79 1.042 1.337.936.268-.053.307-.041.129.038-.23.101-.234.132-.041.292.184.153.229.126.307-.184.05-.2.206-.424.346-.5.14-.075.392-.511.558-.969l.303-.832 1.474-.017c.811-.009 1.656-.056 1.879-.104.454-.098.411.07.617-2.419.186-2.241.881-3.096 2.637-3.243a10.46 10.46 0 0 0 1.36-.21c.413-.104.657-.101.868.013.357.191.382.019.051-.347-.393-.435-.438-4.965-.057-5.712.375-.734 1.569-1.705 2.395-1.947 1.018-.298 1.498-1.453.885-2.13-1.306-1.443-1.093-6.939.31-8.01.859-.656 1.51-2.502 1.122-3.185-.038-.066-.109-.292-.159-.503s-.485-1.179-.966-2.153c-1.431-2.895-1.436-3.602-.039-5.133.582-.637.68-.828.695-1.349.009-.334.072-.573.14-.532.067.041.093-.012.058-.118-.035-.106-.123-.193-.195-.193s-.411-.225-.752-.5a10.192 10.192 0 0 0-1.207-.822c-.547-.3-1.702-1.911-1.605-2.237.018-.06-.085-.502-.228-.983-.57-1.914-.299-4.171.67-5.58.232-.338.437-.807.455-1.045.018-.237.095-.431.17-.431.149 0-.147-.342-.307-.355-.713-.06-1.54-.323-2.416-.768-.588-.298-1.179-.543-1.315-.543-.459 0-1.571-1.242-1.434-1.602.066-.173.089-.344.053-.381-.037-.037-.006-.34.068-.674.38-1.712.462-2.953.237-3.575-.19-.526-.192-.584-.012-.434.17.141.208.132.208-.053 0-.315-.554-.297-.56.018-.005.231-.014.231-.188.001-.135-.178-.527-.279-1.489-.381-4.278-.456-5.688-1.947-5.149-5.445.372-2.41.367-2.595-.07-2.763-.331-.128-3.614-.382-5.163-.4-.802-.009-1.21-.603-1.409-2.053-.092-.669-.261-1.364-.376-1.545-.115-.181-.14-.287-.055-.235s.153.037.153-.034c0-.22-1.014-.083-1.601.217-.886.453-2.117.631-3.892.564l-1.609-.062-.55-.616a7.131 7.131 0 0 1-.904-1.333C81.108.455 80.454.124 79.492.577m1.353 1.744c1.264 2.364 1.382 2.429 4.438 2.447 2.305.014 3.066-.099 3.748-.559.606-.409.834-.413.842-.013.055 2.858.291 3.547 1.215 3.556.36.004 1.091.071 1.626.15.535.078 1.552.144 2.26.145 1.572.003 1.663.115 1.442 1.77-.328 2.454.339 4.736 1.581 5.405.808.436 3.388.914 4.352.807 1.169-.131 1.603 1.032 1.136 3.044-.567 2.442-.259 3.458 1.241 4.103.383.165.695.386.695.492 0 .206 1.071.494 1.837.494.239 0 .634.072.878.161l.443.16-.245.5c-1.184 2.414-1.33 3.134-1.199 5.916.078 1.641 1.416 3.621 3.321 4.913.791.537.806.655.162 1.275-1.769 1.701-1.853 3.292-.334 6.37 1.487 3.013 1.503 3.543.15 4.861-.381.372-.733.855-.781 1.073-.048.219-.177.677-.286 1.019-.111.345-.238 1.526-.287 2.655l-.088 2.033.451 1.095c.248.602.535 1.229.639 1.392.215.339.141.467-.272.468-.306.002-1.284.45-1.92.882-.209.142-.615.673-.903 1.181l-.522.922.021 2.535.021 2.535h-.951c-.523 0-.986.058-1.03.128-.044.071-.259.168-.48.216-.396.087-1.575 1.296-1.949 1.999-.096.181-.203.838-.237 1.458a23.292 23.292 0 0 1-.131 1.579l-.069.452h-1.535c-1.72 0-2.195.254-2.417 1.288-.188.88-.446.987-.825.344-.585-.991-1.551-2.119-2.278-2.659a16.81 16.81 0 0 1-1.329-1.111c-1.251-1.206-6.435-2.601-7.516-2.023-.846.453-1.396 2.52-.953 3.582.535 1.279 1.292 1.67 3.458 1.787l1.575.084.083.413c.046.228.083.667.083.977 0 .31.058.755.13.99.072.235.2.696.286 1.026.18.691 1.966 2.551 3.056 3.182.344.199.971.586 1.393.86.422.274 1.235.646 1.806.828a65.89 65.89 0 0 1 1.802.603c.42.15 1.014.343 1.319.428a15.098 15.098 0 0 1 .589.171c.552.266-2.292 3.719-3.613 4.388a9.504 9.504 0 0 0-.959.559c-.205.144-.64.357-.966.472-.327.115-.63.268-.674.339-.044.072-.484.23-.978.351-.494.122-1.143.316-1.444.431-.661.253-3.411.439-3.411.23 0-.078-.291-.368-.646-.645-2.041-1.59-3.541-5.635-3.463-9.338.06-2.833-.122-3.112-2.031-3.112-1.364 0-1.956.995-1.92 3.226.038 2.379-.219 6.501-.418 6.7-.118.117-.679.257-1.334.33-1.748.195-2.933.827-3.329 1.772-.256.611-.746 3.672-.747 4.67-.001.866-.183.971-2.362 1.358-2.261.402-2.547.541-2.967 1.437-.82 1.751-.957 2.139-1.159 3.267a35.694 35.694 0 0 1-.262 1.371c-.03.108-.302.174-.727.174-1.986 0-3.804.934-4.449 2.285-.488 1.023-.449 4.243.061 4.988.276.403.099.62-.924 1.135-.521.262-1.154.655-1.406.871-.252.217-.745.588-1.095.826-1.075.729-1.727 4.239-1.078 5.8.127.304.304.751.395.994.09.243.534.868.985 1.389.929 1.073.947 1.224.327 2.683-1.171 2.757-.739 5.978.899 6.688 1.869.81 2.28 1.406 2.251 3.257-.027 1.707.177 1.999 1.4 1.999 2.278 0 3.383.551 4.237 2.112.77 1.408 2.856 1.875 5.21 1.165.75-.226 2.61-1.881 2.61-2.322 0-.206.269-.141 1.582.381 3.17 1.261 5.966.381 6.85-2.155.346-.993.029-4.017-.586-5.595-.066-.171.033-.297.372-.471a5.669 5.669 0 0 0 .867-.575 5.752 5.752 0 0 1 1.019-.626c.851-.4 1.107-.952.902-1.944a79.542 79.542 0 0 1-.314-1.637c-.089-.496-.26-1.068-.38-1.271-.257-.434-2.245-1.784-2.628-1.784-.145 0-.62-.125-1.054-.278-2.281-.802-4.617-.22-5.609 1.395-.642 1.047-.842 3.885-.363 5.149.531 1.401.62 1.807.529 2.417-.239 1.593-1.931 2.253-3.339 1.302-.893-.603-1.01-.849-1.113-2.348-.192-2.782-1.256-4.969-2.953-6.066l-.731-.473.417-.446c.925-.99 1.442-2.325 1.337-3.458a26.032 26.032 0 0 1-.096-1.277c-.001-.144-.19-.634-.42-1.091-.493-.976-.506-.953.606-1.104 1.752-.238 2.952-1.56 3.122-3.441l.073-.802.503.112c1.623.364 3.128.394 3.628.072 1.317-.847 1.704-1.129 1.764-1.287.036-.094.413-.457.837-.807l.771-.635.479.802c1.142 1.914 2.222 2.514 4.922 2.739 2.027.168 1.935.119 2.072 1.124.2 1.476.948 2.499 2.193 2.998.43.173.967.425 1.194.561.226.136.695.288 1.041.338 1.002.145 1.501.608 1.151 1.069-1.087 1.435-.506 6.07.761 6.07.11 0 .554.352.987.782.432.43.988.937 1.235 1.126.378.289.426.387.302.618-.081.151-.109.372-.063.492.086.223-.209 1.2-.563 1.867-.384.724-.638 2.727-.539 4.242.14 2.139.061 2.424-.81 2.896-.396.214-1.007.675-1.358 1.024-.351.349-.919.888-1.261 1.197l-.624.563-.154 1.59c-.084.874-.219 1.812-.3 2.083l-.146.494-1.494.17c-2.154.245-5.079 1.686-5.682 2.799-.186.344-.429.782-.539.973a7.503 7.503 0 0 0-.401.863c-.272.702-.705.796-1.802.395-1.535-.563-4.91-.367-5.601.324a36.63 36.63 0 0 1-.696.587c-.357.297-1.002.898-1.435 1.338-.909.922-1.142.968-2.058.405-2.131-1.311-5.108-1.607-7.078-.706-.924.423-1.132.421-1.132-.011 0-.143-.281-.672-.625-1.174-.344-.502-.625-.96-.625-1.018 0-.432-.782-1.157-1.764-1.636-1.719-.838-1.722-.839-3.652-1.034a339.834 339.834 0 0 1-2.971-.317l-1.513-.169-.327-1.103a30.419 30.419 0 0 1-.54-2.153c-.217-1.071-.528-1.536-1.029-1.536-.131 0-.698-.156-1.259-.347-.69-.235-1.323-.347-1.954-.347-1.02 0-1.155-.105-1.021-.8.041-.212-.053-.743-.212-1.201-.157-.451-.285-.958-.285-1.127 0-1.95-1.894-4.335-3.968-4.997l-.704-.225.357-.721c.516-1.044.547-4.761.044-5.465-.172-.241-.312-.487-.312-.546 0-.369-.64-1.329-1.045-1.568-.261-.154-.562-.491-.671-.752a2.108 2.108 0 0 0-.61-.767l-.413-.294.571-.598c1.249-1.309 1.378-4.701.222-5.857-.075-.075-.137-.302-.137-.504 0-.423-.32-.75-1.216-1.242-.847-.465-.958-.669-.683-1.261.32-.689.252-4.296-.086-4.634-.126-.126-.298-.484-.382-.794-.097-.361-.249-.59-.42-.635-.316-.083-.357-.429-.063-.542.594-.228 1.822-2.72 1.874-3.801.009-.191.049-.912.089-1.602.072-1.237.067-1.261-.353-1.79-.522-.656-.526-.744-.047-.926.974-.37 3.896-3.734 3.721-4.284-.045-.14.077-.8.27-1.467.275-.949.351-1.524.351-2.649 0-1.68.137-2.085.746-2.206.239-.047.685-.269.99-.493.306-.224.774-.529 1.042-.677.511-.284 1.497-1.359 2.138-2.33.587-.889.818-2.108.656-3.449-.159-1.32-.28-1.147.921-1.317 1.138-.161 1.39-.307 3.376-1.949.755-.625 1.109-2.684.743-4.321-.079-.353-.059-.365.782-.46 1.059-.12 3.47-.72 3.661-.912a.554.554 0 0 1 .341-.14c.366 0 1.622-1.209 2.04-1.964.404-.728.572-3.274.351-5.304-.064-.585.119-.675 1.684-.821 2.108-.197 3.264-1.026 4.308-3.087.613-1.212.606-1.107.297-4.32l-.081-.843 1.927.061c2.437.078 3.295-.227 4.435-1.575.377-.446.855-.971 1.061-1.167.207-.196.469-.606.582-.911.113-.305.364-.929.558-1.388.233-.55.354-1.096.356-1.608l.003-.774.868.267c.477.147 1.118.381 1.423.521.774.354 2.526.692 3.594.692 3.27 0 5.76-6.627 3.084-8.207-.26-.153-.505-.363-.545-.467-.097-.253-2.032-.986-3.121-1.183-1.759-.318-3.987.016-5.603.84-1.861.949-5.622.984-6.784.063-.114-.091-.474-.241-.799-.334-.324-.093-.59-.219-.59-.282 0-.062-.516-.224-1.146-.36-.63-.136-1.269-.332-1.42-.437-.583-.405-5.07-.131-5.747.35a8.037 8.037 0 0 1-1.012.574c-.774.363-1.853 1.051-2.553 1.629-.301.248-.612.452-.69.452-.078 0-.594.219-1.145.486s-1.064.486-1.139.486c-.075 0-.712.165-1.416.367-1.254.36-1.338.365-4.374.295l-3.096-.071-.877-.423c-1.297-.626-1.631-.986-1.665-1.794-.08-1.958.202-2.878.947-3.084a3.23 3.23 0 0 0 .847-.402c.212-.151.761-.458 1.219-.681.853-.416 2.326-1.288 3.678-2.179.418-.276.814-.501.879-.501.126 0 .953-.663 2.022-1.62.401-.359.85-.975 1.186-1.627l.54-1.05-.076-1.38-.076-1.38.341-.065c.188-.036.887-.034 1.554.004 2.438.139 3.74-1.292 3.872-4.252.093-2.091.102-2.103 1.572-2.103.83 0 1.502-.088 2.101-.276.484-.152.98-.277 1.103-.278.122-.001.614-.416 1.093-.922 3.213-3.397 3.852-4.818 3.946-8.776.066-2.775-.005-2.583.866-2.368.984.244 5.627.175 7.206-.107 1.545-.275 2.103-.574 2.694-1.438 1.053-1.543 1.347-1.611 1.966-.453M63.274 19.49c-1.165.45-1.651.909-2.293 2.167-.344.673-.579 2.255-.404 2.708.059.153.141.434.182.625.201.936 1.784 2.233 3.155 2.584 4.051 1.038 6.711-4.209 3.67-7.239-.913-.909-3.056-1.33-4.31-.846m2.415 1.117c3.256.698 2.435 6.282-.885 6.016-1.384-.111-2.988-1.286-2.988-2.188 0-.22-.053-.433-.117-.472-.624-.386.779-3.15 1.698-3.344l.572-.121c.496-.105.818-.084 1.72.109m47.053 26.42c-.051.051-.093.217-.093.37 0 .348.184.184.211-.188.022-.304.015-.316-.118-.182m.741.185c0 .157.093.278.213.278.17 0 .183-.056.065-.278-.082-.153-.178-.278-.213-.278-.036 0-.065.125-.065.278" fill-rule="evenodd"/></svg>