<svg xmlns="http://www.w3.org/2000/svg" viewBox="0 0 150 150"><path d="M79.359.806a5.484 5.484 0 0 0-1.031 1.134c-.506.769-.731.919-1.238 1.059-1.172.375-1.978.478-4.219.553-2.119.075-3 0-4.828-.441-.694-.188-.806.253-.919 3.3a31.247 31.247 0 0 1-.188 3.216c-.281 1.069-1.425 2.897-2.522 4.144a6.534 6.534 0 0 1-2.119 1.716c-.994.516-1.106.516-2.681.591-2.269.075-2.194.037-2.231 2.081 0 1.284-.037 1.8-.291 2.419-.516 1.359-1.059 1.688-2.569 1.65-1.125-.037-2.269.188-2.625.516-.188.216-.225.441-.188 1.753.037 1.65.066 1.472-.881 2.934-.403.656-.469.731-1.725 1.575-3.591 2.447-3.441 2.344-6.038 3.656-1.978.956-2.269 1.219-2.494 1.978-.113.478-.15 1.219-.113 2.203.075 1.941.263 2.194 1.762 2.925 1.425.656 2.381.806 5.344.844 2.419 0 2.569 0 4.247-.469a9.234 9.234 0 0 0 2.203-.741c.291-.15.806-.403 1.172-.544a4.791 4.791 0 0 0 1.125-.628c.628-.469 1.8-1.247 2.934-1.828a4.191 4.191 0 0 1 2.063-.628c1.5-.141 3.328.113 4.5.553.506.216 1.059.375 1.2.375.15 0 .553.178.919.394 1.5.919 3.113 1.134 5.569.769 1.387-.216 1.791-.328 3.441-1.059 1.031-.441 1.097-.441 2.859-.441 2.484.037 3.553.403 4.763 1.5l.731.694v.956a5.372 5.372 0 0 1-.337 1.828c-.253.806-.469 1.097-1.313 1.978l-1.031 1.031-1.2-.075a7.912 7.912 0 0 1-2.063-.375 18.909 18.909 0 0 0-1.716-.581 4.734 4.734 0 0 1-1.097-.469c-.328-.3-.919-.263-1.134.028-.113.15-.188.591-.216 1.284a3.938 3.938 0 0 1-.441 2.016 4.828 4.828 0 0 0-.441 1.097c0 .075-.291.469-.656.844a7.5 7.5 0 0 0-.881 1.097 4.003 4.003 0 0 1-1.069.731c-.769.375-.872.375-2.925.375-2.747-.047-2.634-.188-2.381 2.7l.188 2.053-.403.769a5.897 5.897 0 0 1-1.762 2.128c-.469.328-.694.403-2.016.506-.844.075-1.612.188-1.716.188a1.912 1.912 0 0 0-.478.619c-.225.516-.225.694-.113 1.875.225 1.753.037 3.366-.441 4.172-.619.909-1.716 1.575-3.469 1.969-.844.188-1.8.337-2.091.337-.844 0-1.247.366-1.247 1.125 0 .337.075.844.141 1.144.15.769-.281 2.672-.694 2.897-.15.066-.544.366-.844.581a4.369 4.369 0 0 1-2.419 1.031c-1.275.216-1.313.253-1.2 1.969.066 1.612-.075 2.419-.553 3.188-.441.703-1.575 1.941-1.791 1.941-.113 0-.375.15-.591.375a4.088 4.088 0 0 1-2.091.872c-.581 0-.909.375-.806.919.075.216.15 1.097.188 1.941a6.816 6.816 0 0 1-.216 2.456 5.269 5.269 0 0 0-.3 1.275c0 .188-.075.403-.141.441a3.159 3.159 0 0 0-.478.769 5.794 5.794 0 0 1-1.462 1.725 7.144 7.144 0 0 1-1.359 1.059c-.291 0-.581.516-.581 1.097 0 .441.066.731.366 1.097.328.441.366.516.281 1.5-.178 2.381-.581 3.45-1.566 4.406-.375.394-.619.759-.619.938 0 .45.619 1.688 1.022 2.166.366.375.366.441.366 1.941a8.316 8.316 0 0 1-.216 2.278c-.225.619-.225.694.028 1.2.188.375.478.628.994.919.469.225.806.516.881.731l.731 1.762c.506 1.247.113 3.469-.731 3.919-.553.253-.844.581-.844.844 0 .103.291.506.619.872.375.375.769.919.881 1.134a2.016 2.016 0 0 0 .656.703c.403.216.403.188 1.031 1.575.441.947.441.984.403 2.672-.075 1.575-.113 1.753-.516 2.559-.469.881-.591 1.462-.253 1.575.066 0 .581.15 1.059.291 1.538.375 2.897 1.612 3.291 2.972.113.366.263.947.337 1.313.037.375.188.956.328 1.247a2.438 2.438 0 0 1 .141 1.134c-.066.441-.028.628.225.994.469.544.516.581 1.575.581.694 0 1.35.113 2.194.375 1.172.394 1.219.394 1.284.872.216 1.359.947 3.769 1.209 3.994.216.216 1.688.441 5.128.731a8.344 8.344 0 0 1 2.447.619c1.397.516 1.838.806 1.838 1.219 0 .103.291.619.694 1.059a3.853 3.853 0 0 1 .769 1.387c.113.694.441 1.134.769 1.134a5.784 5.784 0 0 0 1.247-.469 6.131 6.131 0 0 1 4.172-.441c.994.216 1.397.366 2.934 1.238a2.991 2.991 0 0 0 .984.225c.469 0 .656-.113 1.941-1.313a10.781 10.781 0 0 1 1.828-1.509c1.688-.731 3.188-.844 4.5-.328 1.181.403 1.509.441 2.203.188.441-.188.656-.375.881-.778a2.719 2.719 0 0 0 .253-.656c0-.075.263-.516.516-.984.403-.656.656-.919 1.097-1.144.375-.141.656-.366.694-.431.075-.037.188-.113.3-.113.103 0 .469-.188.806-.403a4.069 4.069 0 0 1 1.903-.553c2.053-.253 2.156-.291 2.419-.469.328-.263.769-2.166.769-3.337 0-.956 0-.984.544-1.462l1.247-1.134a6.375 6.375 0 0 1 1.172-.956c1.172-.581 1.425-1.313 1.209-3.441-.188-1.725 0-2.784.806-4.838a5.381 5.381 0 0 0 .441-1.866v-.769l-1.219-1.172a17.063 17.063 0 0 0-1.753-1.5c-.731-.469-.844-.769-.872-2.419-.037-1.172 0-1.575.216-2.053.375-.806.375-1.688 0-2.119-.253-.328-1.059-.656-1.612-.656a3.103 3.103 0 0 1-.919-.337c-.328-.188-.909-.441-1.238-.581-.591-.225-.769-.375-1.097-.956a2.719 2.719 0 0 1-.403-1.247c0-.656-.478-1.603-.881-1.753a16.031 16.031 0 0 0-1.941-.188 8.016 8.016 0 0 1-2.306-.366 4.641 4.641 0 0 1-2.063-1.969c-.394-.844-.938-1.284-1.416-1.181a7.013 7.013 0 0 0-1.359 1.031 19.003 19.003 0 0 1-1.753 1.387c-.703.478-.703.478-2.016.403a9.506 9.506 0 0 1-1.978-.328c-.628-.216-.694-.216-.956.037-.216.188-.291.403-.291 1.134 0 1.134-.441 2.194-1.097 2.634a4.125 4.125 0 0 1-1.5.516c-1.284.216-1.612.553-1.5 1.284.066.281.178.619.281.806a6.469 6.469 0 0 1 .628 2.597 4.753 4.753 0 0 1-1.247 2.634c-.844.806-.656 1.462.553 2.128 1.425.769 2.494 3 2.597 5.494.075 1.688.291 2.081 1.5 2.925.881.628 1.069.656 1.762.656a3.094 3.094 0 0 0 3.038-2.306c.15-.506.15-.769-.075-1.641-.103-.591-.366-1.322-.469-1.65-.225-.469-.263-.769-.15-2.156.141-1.762.366-2.278 1.209-2.859.469-.3.656-.328 1.866-.328a6.094 6.094 0 0 1 1.791.188 4.406 4.406 0 0 0 .994.281c.619.113 2.156 1.134 2.344 1.575.075.225.188.769.253 1.284.075.516.188 1.097.225 1.359.103.403.066.431-.591.769a19.341 19.341 0 0 0-2.306 1.538c-.291.281-.291.984-.037 1.866.113.366.291 1.284.403 2.091.188 1.2.188 1.5.037 2.044a3.15 3.15 0 0 1-1.688 1.941c-.694.328-.872.375-1.903.3a5.719 5.719 0 0 1-2.194-.553 6.563 6.563 0 0 0-1.575-.441c-.469 0-.591.075-1.097.694-1.397 1.65-1.8 1.838-3.844 1.941-1.284.075-1.359.075-1.762-.281a3.206 3.206 0 0 1-.731-1.031c-.15-.403-.328-.703-.403-.703a3.487 3.487 0 0 1-.731-.581 2.606 2.606 0 0 0-1.097-.619l-1.247-.188a5.728 5.728 0 0 0-1.284-.15h-.516v-1.238c0-1.725-.216-2.203-1.387-3.047a6.572 6.572 0 0 0-1.5-.909c-.806-.328-.919-.844-.844-2.934a6.309 6.309 0 0 1 .441-2.419c.516-1.125.694-2.119.516-2.484a11.175 11.175 0 0 0-.994-1.284 6.234 6.234 0 0 1-.844-1.172 3 3 0 0 0-.253-.769c-.516-1.172-.225-3.919.516-4.612.619-.591 1.969-1.575 2.775-1.941a3.047 3.047 0 0 0 1.069-.731c.291-.328.291-1.097 0-1.612a7.341 7.341 0 0 1-.225-2.016c-.037-2.016.113-2.306 1.284-3.113.769-.516.956-.591 2.194-.694 1.575-.188 1.912-.375 2.016-1.069.263-1.538.441-2.372.656-2.888.844-1.903.806-1.875 1.359-2.016.253-.075 1.172-.253 2.016-.403.806-.15 1.688-.403 1.903-.516.516-.253.806-.947.806-1.688 0-.619.366-3.366.553-4.059.253-.769 1.275-1.313 2.747-1.462 2.119-.225 2.306-.469 2.344-3.591.028-2.597.253-5.859.403-6.225.216-.516 1.2-.619 1.688-.216.094.066.141.769.094 2.006-.028 2.156.159 3.3.844 5.241.412 1.284.591 1.575 1.688 3.3.703 1.022 1.762 2.119 2.344 2.344.516.188 1.8.188 2.859-.075 2.784-.591 3.919-1.031 5.897-2.203.881-.544 2.719-1.969 2.719-2.156 0-.075.244-.403.544-.731.366-.375.731-1.031.909-1.575.3-.844.3-.919.075-1.313-.216-.487-.656-.703-3.038-1.406-1.425-.431-2.381-.797-2.813-1.163a6.834 6.834 0 0 0-1.031-.591 12.825 12.825 0 0 1-1.762-1.462l-1.172-1.134-.188-1.059c-.066-.591-.178-1.472-.178-1.978-.037-.516-.103-1.031-.216-1.106-.113-.188-.656-.216-2.016-.281-2.053-.084-2.456-.188-2.897-.891-.216-.403-.253-.619-.188-1.275.188-1.472.45-1.65 2.063-1.359.656.113 1.866.478 2.709.769 1.313.441 1.688.656 2.813 1.575 1.134.881 1.725 1.462 2.344 2.269.037.075.337.478.628.919.441.731.544.806.984.806.628 0 1.097-.441 1.434-1.313l.253-.703 1.359-.037a24.844 24.844 0 0 0 1.716-.103c.553-.113.731-.628.881-2.344l.075-1.575.656-.769c.731-.844 1.059-.994 2.494-1.144 1.425-.103 1.425-.028 1.35-3-.037-2.381 0-2.494.328-3.15a4.444 4.444 0 0 1 2.306-1.903c.703-.15 1.106-.581 1.106-1.172 0-.253-.075-.581-.188-.694a5.719 5.719 0 0 1-.581-1.247c-.375-.956-.375-1.097-.337-2.747.113-2.419.403-3.375 1.247-4.284.956-1.031 1.134-1.462 1.059-2.559-.028-.769-.216-1.219-.984-2.822-1.313-2.747-1.359-2.822-1.097-3.806a3.713 3.713 0 0 1 1.097-1.978 2.578 2.578 0 0 0 .591-1.069c.066-.441 0-.506-.516-1.022a6.094 6.094 0 0 0-1.313-.956c-.628-.366-.844-.619-1.294-1.387a4.275 4.275 0 0 1-.544-1.359 2.362 2.362 0 0 0-.225-.769c-.581-1.125-.253-3.844.741-5.456.281-.506.544-.947.544-1.022 0-.253-.656-.731-1.425-.984a12.544 12.544 0 0 1-1.462-.628 4.294 4.294 0 0 0-.994-.366c-.188 0-.581-.253-.919-.581l-.619-.656.216-1.688c.113-.956.263-2.016.3-2.344.075-.591.037-.703-.375-1.144-.469-.544-.694-.619-2.081-.731a10.406 10.406 0 0 1-3.15-.806 5.072 5.072 0 0 1-.919-.769c-.731-.769-1.125-2.625-.806-3.844a9.169 9.169 0 0 0 .188-1.5c.037-1.059.037-1.097-.291-1.247a23.691 23.691 0 0 0-2.822-.253 15.319 15.319 0 0 1-2.784-.291c-.509-.19-.762-.734-.875-1.906-.103-1.069-.253-1.5-.543-1.725-.263-.15-.806-.113-1.313.188-.778.394-1.659.544-3.3.544-1.5 0-2.569-.188-2.569-.441a2.053 2.053 0 0 0-.403-.535 5.175 5.175 0 0 1-.844-1.284C80.971.563 80.24.309 79.359.816Zm1.612 1.5c1.275 2.231 1.209 2.231 3.881 2.381 1.941.075 3.469-.15 4.172-.591.881-.619.919-.544 1.059 1.472.113.984.225 1.866.263 1.903.103.113 3.291.441 4.65.441a6.938 6.938 0 0 1 1.35.103c.113.075.15.778.15 2.344 0 3.15.366 4.181 1.65 4.838.619.291 3.15.769 4.209.769.881 0 .919.037 1.172.441.291.553.291 1.875 0 2.859a7.134 7.134 0 0 0-.216 1.612c-.075 1.125.188 1.5 1.313 2.119a3.769 3.769 0 0 1 .956.628c.075.141.366.253.844.328 1.603.216 2.194.366 2.194.619a.656.656 0 0 1-.15.375c-.141.178-1.031 2.409-1.247 3.253a6.263 6.263 0 0 0-.028 2.119 5.653 5.653 0 0 0 .581 2.381c.591 1.134 1.462 2.156 2.494 2.859 1.247.844 1.209.806.366 1.725A3.469 3.469 0 0 0 109.565 39c-.394 1.359-.366 1.875.337 3.3 2.081 4.284 2.119 4.575.656 6.112-.881.919-1.209 2.016-1.359 4.65l-.066 1.875.581 1.5c.328.797.553 1.538.469 1.603-.028.075-.216.15-.356.15a5.109 5.109 0 0 0-2.053 1.031 8.109 8.109 0 0 0-.806 1.275l-.441.956.037 2.381.037 2.344-.947.103c-1.359.113-2.091.441-2.531 1.097a2.897 2.897 0 0 1-.469.563c-.3 0-.591.909-.666 2.006-.037.694-.075 1.425-.15 1.688l-.037.431h-1.603c-1.247 0-1.612.037-1.8.225a3.919 3.919 0 0 0-.694 1.35c-.037.225-.188.441-.328.516-.225.113-.328.037-.703-.581a10.575 10.575 0 0 0-2.709-3 9.6 9.6 0 0 1-1.2-.994c-.225-.291-3.113-1.313-4.472-1.612a9.431 9.431 0 0 0-1.612-.188c-1.209 0-1.791.806-1.828 2.456-.037.881 0 1.059.328 1.538.216.328.516.656.694.769.403.3 1.828.516 3.15.516h1.059l.037.919c0 1.059.225 2.044.553 2.85.216.591 1.903 2.269 2.813 2.822.337.225.919.591 1.284.844.403.253 1.322.656 2.091.881.769.253 1.791.619 2.269.806.478.188.956.328 1.069.328.366 0 .394.328.028 1.125-.506 1.144-2.231 2.869-3.581 3.703-1.612.919-2.859 1.538-3.591 1.688a8.006 8.006 0 0 0-1.247.375 10.406 10.406 0 0 1-1.978.281l-1.359.075-.797-.694c-1.472-1.284-2.897-4.069-3.487-6.778a14.063 14.063 0 0 1-.103-2.784c0-1.125 0-2.194-.075-2.306-.225-.403-.881-.656-1.725-.656-.656 0-.844.037-1.172.375-.441.469-.694 1.5-.694 2.737 0 .469-.037 2.128-.113 3.741-.141 3.291-.066 3.188-1.313 3.328-1.5.188-1.725.253-2.531.694-1.209.628-1.35.994-1.753 4.65-.225 1.875-.225 1.978-.628 2.091-.188.075-1.097.291-2.016.441-.947.188-1.903.403-2.119.516-.694.366-2.016 3.694-2.016 5.156 0 .478-.075.516-1.688.628a4.847 4.847 0 0 0-2.813 1.209c-.919.731-1.069 1.238-1.069 3.216 0 1.106.075 1.912.225 2.241.328.984.291 1.125-.591 1.538a13.031 13.031 0 0 0-2.044 1.313c-1.322.994-1.359.994-1.612 1.903a8.513 8.513 0 0 0-.3 2.344c-.028 1.284 0 1.472.403 2.419a9.009 9.009 0 0 0 1.219 1.941c.872 1.031.872 1.172.281 2.644-.656 1.538-.797 4.425-.281 5.634.141.403.319.553.844.806.984.403 2.222 1.359 2.438 1.828a7.078 7.078 0 0 1 .15 1.65c-.066 1.538.037 1.762.919 1.828 2.859.3 3 .337 3.703 1.031.403.328.806.844.872 1.059a2.784 2.784 0 0 0 1.912 1.538c.797.113 2.409-.037 3.216-.291a3.994 3.994 0 0 0 2.053-1.65 3.984 3.984 0 0 1 .769-.806c.113 0 .731.263 1.425.516 2.306.919 4.219.769 5.606-.403a4.106 4.106 0 0 0 1.284-2.747c0-1.209-.403-3.516-.769-4.472-.075-.216.656-.806 2.194-1.688.956-.544 1.134-.984.956-1.856-.075-.375-.188-.881-.225-1.144a5.231 5.231 0 0 0-.506-1.941c-.337-.366-2.241-1.538-2.569-1.538a4.078 4.078 0 0 1-1.031-.253 5.128 5.128 0 0 0-2.119-.291c-1.387 0-1.462 0-2.119.469a3.337 3.337 0 0 0-1.575 2.569c-.225 1.612-.188 2.962.103 3.656.769 1.725.741 2.756-.103 3.628-.478.516-.591.553-1.359.628-.731.037-.881 0-1.462-.375-1.059-.656-1.172-.909-1.284-2.447-.188-2.784-1.313-5.091-2.859-6a3.094 3.094 0 0 1-.797-.563c0-.066.188-.356.431-.619a4.641 4.641 0 0 0 1.284-3.038 6.066 6.066 0 0 0-.581-2.784 1.959 1.959 0 0 1-.337-.731c0-.188.15-.253 1.322-.441 1.612-.253 2.634-1.5 2.813-3.328.084-.731.122-.919.3-.844.375.113 2.269.366 2.934.366.806.037 1.716-.469 3.216-1.875a8.278 8.278 0 0 1 1.247-.984c.113 0 .375.291.591.694.581 1.031 1.462 1.875 2.306 2.278.619.253 1.125.366 2.597.469 2.091.188 2.016.15 2.203 1.5.103.816.844 2.016 1.313 2.316 1.059.544 2.531 1.125 3.262 1.275 1.059.225 1.209.516.731 1.65-.291.731-.328 1.031-.291 2.269.066 1.875.281 2.606.872 2.972.263.141 1.031.806 1.725 1.425l1.313 1.134-.103.731a13.069 13.069 0 0 1-.516 1.838 9.375 9.375 0 0 0-.656 4.575c.113 2.016 0 2.306-.806 2.747a5.494 5.494 0 0 0-1.284.947c-.366.375-.984.919-1.35 1.247l-.628.553-.103 1.247c-.113 1.313-.337 2.625-.516 2.888a7.275 7.275 0 0 1-1.65.328 4.725 4.725 0 0 0-2.231.591l-1.725.844a5.559 5.559 0 0 0-1.209.731 14.156 14.156 0 0 0-.909 1.575c-.844 1.612-1.031 1.716-2.306 1.284a6.506 6.506 0 0 0-3.994-.188c-1.538.469-1.762.591-3.188 1.941-1.5 1.425-1.791 1.5-2.597.956-1.875-1.397-5.494-1.725-7.331-.656a7.228 7.228 0 0 1-.806.394c-.028 0-.141-.253-.253-.581a3.891 3.891 0 0 0-.656-1.284 8.691 8.691 0 0 1-.694-1.134c-.337-.769-1.219-1.359-3.084-2.016a9.45 9.45 0 0 0-2.194-.403 64.547 64.547 0 0 1-3.038-.328l-1.462-.15-.188-.619c-.113-.328-.291-1.172-.469-1.875-.478-2.194-.337-2.006-2.316-2.625a8.081 8.081 0 0 0-2.119-.375c-.919 0-.994 0-1.069-.328a1.566 1.566 0 0 1 0-.581c.075-.113-.037-.656-.188-1.134-.141-.516-.356-1.434-.506-2.016a5.409 5.409 0 0 0-3.731-4.069l-.881-.253.328-.469c.441-.666.694-2.25.591-3.891a5.128 5.128 0 0 0-.628-2.494c-.403-.797-.694-1.2-1.059-1.425a1.491 1.491 0 0 1-.591-.581 3.122 3.122 0 0 0-.656-.919c-.441-.441-.516-.619-.366-.694.441-.15.956-.806 1.247-1.612.469-1.247.253-3.038-.553-4.612-.037-.15-.141-.441-.216-.656-.113-.3-.328-.516-.994-.881-.947-.516-1.172-.844-.844-1.5.337-.591.225-4.144-.066-4.472a1.538 1.538 0 0 1-.328-.694 1.219 1.219 0 0 0-.403-.703c-.375-.216-.441-.656-.15-.769.403-.141 1.284-1.575 1.538-2.372.291-.994.328-1.284.441-2.859.075-1.134.075-1.172-.328-1.8-.478-.694-.478-1.059 0-1.172.328-.066 2.531-2.156 3.216-3.038a1.828 1.828 0 0 0 .375-.984c0-.263.103-.881.281-1.359a11.438 11.438 0 0 0 .375-2.597c.037-2.016.188-2.531.656-2.531.188 0 .628-.216.994-.469.366-.263.872-.553 1.097-.703.581-.253 1.941-1.753 2.344-2.559a4.969 4.969 0 0 0 .506-3.113 4.612 4.612 0 0 1-.028-1.209 2.869 2.869 0 0 1 .984-.253c.994-.15 1.209-.225 2.747-1.397.656-.469 1.031-.844 1.097-1.097.037-.188.113-.591.225-.844a7.181 7.181 0 0 0 .037-2.672l-.113-.656h.441c.731 0 3.516-.656 4.313-1.031a4.669 4.669 0 0 0 2.241-2.119c.291-.591.328-.956.366-2.203.037-.844 0-1.866-.075-2.231a2.55 2.55 0 0 1 0-1.059c.15-.441.263-.478 2.053-.591a5.156 5.156 0 0 0 1.575-.403c.844-.403 1.875-1.575 2.419-2.709l.469-.984-.141-1.941a13.5 13.5 0 0 1-.113-2.091c.037-.037.919-.075 1.903-.037 1.612.037 1.875.037 2.644-.253.872-.328 1.2-.628 2.484-2.091a7.706 7.706 0 0 0 1.828-4.397v-.909l.337.216a4.406 4.406 0 0 0 1.059.441c.403.113 1.209.375 1.791.591.844.281 1.284.366 2.456.366l1.359.037.769-.703a6.938 6.938 0 0 0 2.006-2.85c.337-.844.337-1.069.263-2.091-.075-.919-.15-1.313-.403-1.725-.188-.253-.403-.506-.478-.506a2.006 2.006 0 0 1-.619-.403 5.981 5.981 0 0 0-1.941-.919c-1.397-.516-1.434-.516-3.084-.403-1.603.075-1.781.113-2.962.628a15.731 15.731 0 0 1-4.5 1.097c-.591 0-3-.628-3.113-.806a1.125 1.125 0 0 0-.516-.225 4.2 4.2 0 0 1-.844-.366 8.334 8.334 0 0 0-1.247-.403 4.95 4.95 0 0 1-1.247-.403c-.366-.141-.806-.188-2.625-.103l-2.25.103-1.238.628c-.694.366-1.5.844-1.791 1.059a2.494 2.494 0 0 1-.703.403c-.103 0-.328.188-.544.403a3 3 0 0 1-.919.591 11.4 11.4 0 0 0-1.097.431c-.375.188-1.247.516-1.969.741-1.294.394-1.359.394-4.659.366H43.9l-1.022-.516c-1.5-.731-1.538-.806-1.612-2.456-.037-1.538.188-2.269.806-2.531.403-.141.694-.281 2.494-1.275.731-.403 1.725-.994 2.231-1.284.516-.328 1.247-.806 1.688-1.031.919-.581 2.156-1.5 2.672-2.044.216-.253.591-.844.881-1.35.469-.956.469-.994.441-2.419l-.037-1.472 1.716-.066c1.941-.075 2.381-.225 2.972-.994.694-.909.947-1.753 1.031-3.225a6.281 6.281 0 0 1 .281-1.791c.15-.366.188-.366 1.538-.366a7.116 7.116 0 0 0 2.419-.403c1.031-.375 1.097-.403 2.419-1.875 1.097-1.163 1.538-1.828 2.091-2.85.403-.731.769-1.65.844-2.016.103-.371.216-1.759.216-3.108.075-1.313.113-2.447.15-2.484a4.425 4.425 0 0 1 1.059.141c1.688.403 5.306.263 7.687-.253 1.134-.253 1.172-.291 1.941-1.313 1.134-1.584 1.434-1.622 2.156-.337Zm0 0" fill="currentColor" stroke="currentColor"/></svg>